<svg version="1.2" xmlns="http://www.w3.org/2000/svg" viewBox="0 0 3320 7890" width="3320" height="7890">
	<title>Untitled-2-ai</title>
	<style>
		.s0 { fill: #0081e2 } 
		.s1 { fill: #1faaff } 
		.s2 { fill: #ffffff } 
	</style>
	<g id="Layer 1">
		<g id="&lt;Group&gt;">
			<g id="&lt;Group&gt;">
				<path id="&lt;Path&gt;" class="s0" d="m2066.4 492c35 35 35 91.7 0 126.7-35 35-91.7 35-126.7 0-35-35-35-91.8 0-126.8 35-35 91.7-34.9 126.7 0.1z"/>
				<path id="&lt;Compound Path&gt;" fill-rule="evenodd" class="s1" d="m2111.8 555.3c0 60.1-48.7 108.7-108.7 108.7-60.1 0-108.8-48.6-108.8-108.7 0-60 48.7-108.7 108.8-108.7 60 0 108.7 48.7 108.7 108.7zm-23 0c0-47.3-38.4-85.8-85.7-85.8-47.4 0-85.8 38.5-85.8 85.8 0 47.4 38.4 85.8 85.8 85.8 47.3 0 85.7-38.4 85.7-85.8z"/>
				<g id="&lt;Group&gt;" style="opacity: .2">
					<path id="&lt;Path&gt;" class="s2" d="m2002.5 664c-59.8-0.3-108.2-48.8-108.2-108.7 0-59.8 48.4-108.3 108.2-108.7v22.9c-47.1 0.4-85.2 38.7-85.2 85.8 0 47.2 38.1 85.5 85.2 85.8z"/>
				</g>
				<g id="&lt;Group&gt;">
					<path id="&lt;Compound Path&gt;" class="s2" d="m2029 609h-51.9q-7 0-13.3-2.5-12.7-5.1-18.8-17.4-2.9-6.1-2.9-13h24.2q-0.1 2.8 1.6 4.8 1.7 2 4.2 3 2.5 1 5 1h51.9q2.5 0 5-1 2.5-1 4.2-3 1.7-2 1.7-4.8 0-2.8-1.7-4.7-1.7-2-4.2-3-2.5-1.1-5-1.1h-51.9q-7 0-13.3-2.4-12.7-5.1-18.8-17.4-2.9-6.1-2.9-13 0-6.9 2.9-13 6.1-12.3 18.8-17.4 6.3-2.5 13.3-2.5h51.9q7.1 0 13.3 2.5 12.8 5.1 18.9 17.4 2.8 6.1 2.8 13h-24.1q0-2.8-1.7-4.7-1.7-2-4.2-3-2.5-1.1-5-1.1h-51.9q-2.5 0-5 1.1-2.5 1-4.2 3-1.7 1.9-1.6 4.7-0.1 2.8 1.6 4.8 1.7 1.9 4.2 2.9 2.5 1.1 5 1.1h51.9q7.1 0 13.3 2.5 12.8 5.1 18.9 17.4 2.8 6.1 2.8 12.9 0 6.9-2.8 13-6.1 12.3-18.9 17.4-6.2 2.5-13.3 2.5z"/>
				</g>
			</g>
		</g>
	</g>
</svg>