<svg version="1.2" xmlns="http://www.w3.org/2000/svg" viewBox="0 0 1203 507" width="220" height="150">
	<title>Untitled-2-ai</title>
	<defs>
		<radialGradient id="g1" cx="213.8" cy="262.3" r="158.5" gradientUnits="userSpaceOnUse">
			<stop offset="0" stop-color="#53d2f4"/>
			<stop offset="1" stop-color="#197ab7"/>
		</radialGradient>
		<radialGradient id="g2" cx="213.8" cy="248.4" r="158.4" gradientUnits="userSpaceOnUse">
			<stop offset="0" stop-color="#53d2f4"/>
			<stop offset="1" stop-color="#197ab7"/>
		</radialGradient>
		<linearGradient id="g3" x1="485.4" y1="160.9" x2="485.4" y2="438.7" gradientUnits="userSpaceOnUse">
			<stop offset="0" stop-color="#53d2f4"/>
			<stop offset="1" stop-color="#197ab7"/>
		</linearGradient>
		<linearGradient id="g4" x1="623.6" y1="163.8" x2="623.6" y2="434.3" gradientUnits="userSpaceOnUse">
			<stop offset="0" stop-color="#53d2f4"/>
			<stop offset="1" stop-color="#197ab7"/>
		</linearGradient>
		<linearGradient id="g5" x1="761.6" y1="164.1" x2="761.6" y2="434.1" gradientUnits="userSpaceOnUse">
			<stop offset="0" stop-color="#53d2f4"/>
			<stop offset="1" stop-color="#197ab7"/>
		</linearGradient>
		<linearGradient id="g6" x1="892.1" y1="160.9" x2="892.1" y2="438.7" gradientUnits="userSpaceOnUse">
			<stop offset="0" stop-color="#53d2f4"/>
			<stop offset="1" stop-color="#197ab7"/>
		</linearGradient>
		<linearGradient id="g7" x1="1018" y1="164.1" x2="1018" y2="434.1" gradientUnits="userSpaceOnUse">
			<stop offset="0" stop-color="#53d2f4"/>
			<stop offset="1" stop-color="#197ab7"/>
		</linearGradient>
		<linearGradient id="g8" x1="1154.2" y1="162.9" x2="1154.2" y2="434.9" gradientUnits="userSpaceOnUse">
			<stop offset="0" stop-color="#53d2f4"/>
			<stop offset="1" stop-color="#197ab7"/>
		</linearGradient>
	</defs>
	<style>
		.s0 { fill: url(#g1) } 
		.s1 { fill: url(#g2) } 
		.s2 { fill: url(#g3) } 
		.s3 { fill: url(#g4) } 
		.s4 { fill: url(#g5) } 
		.s5 { fill: url(#g6) } 
		.s6 { fill: url(#g7) } 
		.s7 { fill: url(#g8) } 
	</style>
	<g id="Layer 1">
		<g id="&lt;Group&gt;">
			<g id="&lt;Group&gt;">
				<path id="&lt;Path&gt;" class="s0" d="m393 176.3c-12.4-7.5-58.9-33.9-76.9-9.5-19.4 26.3-44.5 144.1-47.8 163.7q-16.2 56-95.6 59.5c49.4-25.6 53-235.9 107.2-261.7 40-19 96.4 29.1 113.1 48z"/>
				<path id="&lt;Path&gt;" class="s1" d="m148.9 385.7c-40 19-96.4-29.1-113.1-48 12.3 7.5 58.9 33.9 76.9 9.5 19.4-26.3 44.5-144.1 47.7-163.7q16.3-56 95.6-59.5c-49.3 25.6-53 236-107.1 261.7z"/>
			</g>
			<g id="&lt;Group&gt;">
				<path id="&lt;Path&gt;" class="s2" d="m483.4 299.2v0.3c0 21.2-16.4 34.9-41.8 34.9-18.1 0-34.9-6.4-48.6-18.6l12-14.3c12.2 10.5 23.7 15.2 37.1 15.2 12.9 0 21.2-6 21.2-15.2v-0.3c0-8.2-4-13.1-26.8-18.3-25.3-6.1-39-13.5-39-34.9v-0.3c0-19.9 16.4-33.8 39.9-33.8 16.2 0 30 4.7 42.3 14.5l-10.7 15.1c-10.9-8-21.3-12-31.9-12-11.5 0-19.5 5.9-19.5 14.3v0.4c0 9.5 6 13.5 28.2 18.8 27 6.6 37.6 16.2 37.6 34.2z"/>
				<path id="&lt;Path&gt;" class="s3" d="m598.8 215.4l22.8 0.1-46.4 70.4-0.1 46.8h-20.2v-46.1l-46.5-71.1h23.8l33 52.5z"/>
				<path id="&lt;Path&gt;" class="s4" d="m739.9 215.5h19.7v117.2h-17l-65.3-84.5v84.5h-19.7v-117.2h18.9l63.4 82.1z"/>
				<path id="&lt;Path&gt;" class="s5" d="m890.1 299.2v0.3c0 21.2-16.4 34.9-41.8 34.9-18.1 0-34.9-6.4-48.7-18.6l12.1-14.3c12.2 10.5 23.7 15.2 37.1 15.2 12.9 0 21.2-6 21.2-15.2v-0.3c0-8.2-4-13.1-26.8-18.3-25.3-6.1-39-13.5-39-34.9v-0.3c0-19.9 16.4-33.8 39.9-33.8 16.2 0 30 4.7 42.3 14.5l-10.7 15.1c-10.9-8-21.3-12-31.9-12-11.5 0-19.5 5.9-19.5 14.3v0.4c0 9.5 6 13.5 28.2 18.8 27 6.6 37.6 16.2 37.6 34.2z"/>
				<path id="&lt;Path&gt;" class="s6" d="m921.1 215.5h94.9v18.6h-37.4v98.6h-20.2v-98.6h-37.3z"/>
				<path id="&lt;Path&gt;" class="s7" d="m1152.2 332.7h-21.2l-11.9-28.5-7.3-17.6-20.9-48.3-20.7 48.3-7.3 17.6-12.1 28.5h-20.5l51.6-118h18.7z"/>
			</g>
		</g>
	</g>
</svg>